<?xml version="1.0" encoding="utf-8"?>
<!-- Generator: Adobe Illustrator 15.1.0, SVG Export Plug-In . SVG Version: 6.00 Build 0)  -->
<!DOCTYPE svg PUBLIC "-//W3C//DTD SVG 1.1//EN" "http://www.w3.org/Graphics/SVG/1.1/DTD/svg11.dtd">
<svg version="1.1" id="Layer_1" xmlns="http://www.w3.org/2000/svg" xmlns:xlink="http://www.w3.org/1999/xlink" x="0px" y="0px"
	 width="1920px" height="320px" viewBox="0 0 1920 320" enable-background="new 0 0 1920 320" xml:space="preserve">
<g>
	<path fill-rule="evenodd" clip-rule="evenodd" d="M305.887,155.021h4.193c6.721,13.839,12.649,28.444,23.822,37.823
		c3.27-0.459,5.79-1.686,8.406-2.803c5.306-4.969,7.875-12.667,14.014-16.812c1.306-5.209,2.689-10.37,5.597-14.01
		c7.414,1.477,7.112,10.644,9.82,16.813c5.776,2.628,5.625,11.169,12.593,12.613c8.014-0.869,10.299-7.469,15.399-11.217
		c0.428-5.184-0.786-11.988,5.614-11.197c4.556,0.103,2.991,6.346,4.212,9.802c2.871,3.193,3.433,8.703,6.986,11.216
		c9.155-2.072,8.243-14.182,16.812-16.811c4.501-0.296,3.409,4.99,5.614,6.99c1.256,2.485,3.384,4.098,4.212,7.018
		c5.928,1.689,12.25,1.689,18.208,0c4.061,1.07,8.056,2.211,9.802,5.596c5.106,1.244,7.463-2.465,9.808,0
		c1.68,5.893-2.266,6.146-2.798,9.813c-7.935,0.914-12.739-1.291-15.416-5.607c-8.188,2.551-15.471,0.539-22.414,0
		c-2.091-3.982-5.203-6.943-7.016-11.205c-6.896,4.775-9.022,14.305-18.208,16.813c-5.639-3.227-8.026-9.709-9.802-16.813
		c-3.953-0.221-3.511,3.961-5.614,5.604c-1.396,1.867-3.765,2.75-4.194,5.602c-3.493-0.234-4.375,2.152-5.591,4.207
		c-3.371-0.852-6.405-2.018-11.215-1.402c-2.309-3.758-5.929-6.199-8.406-9.803c-2.297-3.77-3.844-8.285-7.01-11.216
		c-9.41,9.707-17.114,27.091-30.815,28.017c-8.811-6.588-14.727-16.094-19.622-26.622c-1.366-3.922-3.722,2.043-5.59-1.396
		C307.953,167.675,301.632,162.78,305.887,155.021"/>
	<path fill-rule="evenodd" clip-rule="evenodd" d="M898.459,166.23c5.869,10.829,4.588,28.495,6.986,39.227
		c-0.997,8.32,2.514,21.182-2.792,25.205c-5.486,0.822-3.589-5.758-7.003-6.998c2.961-8.461,2.592-11.555,2.809-22.408
		c-3.831-9.244-1.631-24.535-8.423-30.819c-0.212-1.638,0.32-2.497,1.413-2.805C893.075,166.454,895.203,165.783,898.459,166.23"/>
	<path fill-rule="evenodd" clip-rule="evenodd" d="M1048.33,166.23c2.375,4.617,0.84,8.957,0,14.008
		c-3.494,2.563-9.209,2.906-11.188,7.01c1.336,6.115,9.52,5.402,12.602,9.803c10.961,0.947,31.908,2.949,46.223,0
		c-0.26,11.855-18.752,4.854-23.797,8.406c-7.09,0.104-8.031-1.771-14.014,0c-6.551-0.926-12.738-2.207-19.611-2.805
		c-1.934-3.215-5.777-4.514-8.424-7.01c0.32-4.508-2.459-5.922-1.402-11.199c-8.061-5.463-25.865-1.201-23.797-16.811
		c10.775,1.499,16.594,10.11,28.01,7.004C1039.664,173.435,1040.215,166.043,1048.33,166.23"/>
	<path fill-rule="evenodd" clip-rule="evenodd" d="M1862.24,155.021c-2.672,3.384-7.299-2.02-11.205,1.407
		c-2.984-6.46-6.914,2.278-8.412-1.407c-5.074,1.71-11.045-2.799-12.605,0c-5.125,1.22-6.285,1.39-9.801,0
		c-4.279,2.054-7.289,0.38-11.193-1.396c-3.793,2.834-5.438-0.061-9.826,0c-7.506,2.423-16.752,0.369-22.408,0
		c-5.523,2.738-4.291-2.738-9.801,0c-2.732-3.335-7.844,2.556-11.217-1.402c-8.762,2.212-16.086,0.568-28.004,1.402
		c-4.775,0.381-11.373-1.088-14.008,1.396c-0.773-4.92-8.133-2.249-11.215-1.396c-32.344-1.837-82.828,0.26-117.674-1.402
		c-6.32,1.016-6.998-0.452-11.203,1.402c-2.43-1.717-6.273-1.813-8.4,1.396c-5.258-2.079-4.242-2.303-11.217-1.396
		c-3.951-1.166-3.613,1.977-6.998,1.396c1.402-4.212-3.129-2.479-5.607-2.799c-4.605,1.729-14.08-0.804-22.42,2.799
		c-6.322-3.796-10.443-1.265-19.617-1.396c-4.955,3.167-13.053-4.436-19.604,0c-5.258-4.26-13.609-0.036-16.813-1.402
		c-12.098-1.813-26.252,0.398-43.426,0c-3.965-0.234-5.838-2.567-9.803-2.804c-0.33,5.856-5.209-1.59-7.002,2.804
		c-15.791-3.258-22.09-1.528-40.635-2.804c-14.045,2.212-28.91-1.427-44.811-1.401c-17.236,1.13-22.631,0.38-40.635,0
		c-25.574-1.518-57.404,0.15-78.445-1.402c-7.385,1.015-12.086-1.088-18.209,2.804c-1.184-4.998-3.467-0.163-8.406-1.401
		c-3.252-5.09-4.834,4.623-7.004,0c-11.922-1.179-27.574-3.017-42.029-1.402c-3.027-2.901-14.975,2.943-19.611-1.402
		c-5.195-0.992-6.006,2.399-11.203,1.402c-2.58,4.405-4.744-4.714-7.01,0c-13.283-2.17-26.365-1.155-39.232-1.402
		c-14.563-1.312-30.91,0.193-44.82-1.396c-6.068-0.701-12.027,0.054-16.797,0c-4.137-0.056-9.406,0-12.615,0
		c-1.766,0-1.979-1.336-4.195-1.409c-15.355-0.459-28.517,0.044-37.829,0c-1.753-0.005-2.877-1.184-5.614-1.396
		c-1.886-0.146-3.191,1.505-4.195,1.396c-0.58-0.059-2.949-2.7-4.194-2.791c-1.583-0.121-2.163,1.244-4.212,1.396
		c-6.176,0.466-11.427-3.1-18.214-1.396c-2.048,1.552,9.827,10.013,1.402,14.008c-3.027-1.649-6.291-3.04-7.01-7.01
		c-2.641-3.518,3.167-7.506-4.194-6.998c-12.237-1.964-21.145-0.345-40.628-1.408c-6.128-0.145-15.947-1.203-18.208,0
		c-3.638,3.777-4.224-1.71-8.412-1.396c-1.426,5.433-9.373-4.339-8.4,2.804c-5.445,2.495-0.296,10.224,0,15.404
		c0.073,7.401,0.622,14.321,2.81,19.614c-0.333,7.32,0.013,13.984,1.403,19.611c1.268,4.57-0.87,11.748,2.792,16.807
		c-0.756,8.406,2.006,11.947,2.797,15.416c0.429,7.059,1.094,13.857,4.207,18.207c-0.346,7.344,3.408,10.596,4.199,16.813
		c0.834,3.971,10.552,11.289,1.414,12.605c-0.731-5.535-2.085,5.541-2.81,0c-3.771,0.961-2.707-2.893-4.218-4.199
		c-2.792-2.803-4.073-7.119-8.381-8.406c-1.161-4.447-4.473-6.738-7.017-9.809c-0.737-5.148-7.705-4.043-4.206-9.807
		c4.666,0.471,4.563,5.73,9.82,5.602c1.608,1.004,5.56,10.453,5.59,4.205c-11.126-40.379-10.986-73.707-18.207-113.471
		c-16.51,1.952-34.61-4.72-47.64,2.804c-8.218-4.532-17.627-0.798-26.595-2.804c-1.644,1.178-3.771,1.843-7.01,1.408
		c-0.78-0.012-1.595,1.137,0,1.396c1.469,0.078,1.094,1.796-1.415,1.396c-3.419-7.372-7.293,2.122-14.001,0
		c-5.155,0.931-10.654,1.493-15.41,2.805c-6.63-0.084-13.301-0.218-15.399,4.206c1.403,3.154,7.633-3.034,9.785,1.401
		c3.409,1.27,3.717,5.633,4.212,9.803c-0.073,6.932-5.82,8.194-8.406,12.606c-1.275,2.466-4.907,2.562-6.992,4.198
		c0.242,3.983-9.179-1.679-7.022,4.213c4.925,6.617,15.265,9.307,22.42,9.807h22.426c7.687,1.457,14.497-4.488,16.812,2.799
		c-2.652,4.533-7.813,3.451-12.618,2.805h-8.406c-4.502-1.168-2.901-1.191-5.614,1.402c-11.5-0.225-20.686-0.121-32.211-2.811
		c-3.752-0.912-5.329-4.014-8.399-5.602c-2.315-2.346-1.13-8.225-7.004-7c-13.295-1.865-29.116,0.686-40.634-5.614
		c-11.585-6.615-18.366-18.057-25.2-29.41c-0.882-8.474-6.322-12.359-9.827-18.202c-1.245-3.434-3.251-6.085-2.792-11.216
		c-1.994-1.808-4.593-7.868,0-8.406c6.383,0.609,5.578,8.43,8.4,12.611c0.901,6.092,6.316,7.692,7.01,14.009
		c5.584,8.424,9.821,18.202,16.812,25.212c6.05,0.024,5.173,6.979,11.204,7.003c12.389,4.262,23.617,4.769,37.836,4.201
		c6.503-4.689,5.5-16.897,13.997-19.604c3.909-1.801-4.424-2.895-2.816-7.01c-2.762-2.647-0.664-6.624,0-9.802
		c5.717-0.109,12.454,3.838,15.416-1.396c4.048,2.997,11.131-0.284,15.416-1.409c10.714,1.505,21.399,0.817,30.826,0
		c21.266-1.262,46.424-1.389,70.047-1.396c0.205-6.296-1.149-11.004-4.213-14.013c-7.161,0.894-7.771-7.586-4.2-9.804
		c2.659-6.743,5.736,2.533,12.599,0c5.205-1.178,11.223-0.567,14.022,0c19.621-6.097,43.347-3.849,63.029-7.003
		c8.104,4.834,28.095-2.066,28.016,14.002c-9.228,2.858-19.21-4.835-30.826-4.206c-14.927,1.106-18.667,0.943-36.422,1.414
		c-7.566,0.212-13.555,1.982-19.604,2.792c-5.656,0.761-11.385-0.375-16.812,2.805c2.58,2.114,4.152,9.457,1.396,12.611
		c5.112,4.225,14.533-2.127,16.813,2.797c12.087-1.389,21.132-1.021,30.826,0c9.367-1.558,11.627,1.288,18.214,0
		c3.463,1.585,8.557-0.428,16.812,0c7.433-0.53,11.917,5.508,16.812,0c2.92,3.071,4.526-1.22,6.987,1.409
		c1.734,4.249,4.84-1.529,8.423,0c2.92,3.046,3.983-0.701,8.389,0c6.278-2.079,4.32,4.091,9.825,2.792
		c8.599-2.937,21.383-0.617,29.406,1.408c5.428,1.317,5.766-5.469,9.809-1.408c4.756-0.381,11.373,1.088,14.014-1.396
		c3.252,5.421,8.48,0.156,14.014,2.804h19.611c20.455,1.523,47.207,0.768,68.645,1.396c3.463,1.819,6.779-3.125,6.99,0
		c2.678,2.623,3.523,0.151,7.012,0c15.699,0.557,25.309,1.867,42.023,0c10.121,1.094,27.363,2.489,35.025,1.396
		c9.791,1.626,20.438-0.059,30.826,0c9.984,0.073,19.834,2.195,27.992-1.396c4.545,1.27,8.092,1.668,15.416,2.805
		c6.357-2.116,11.488-0.919,18.209,0c3.377-0.877,9.428-1.154,16.813-1.409c4.953,5.567,8.115-1.801,16.811,0
		c6.891,3.433,12.377,0.4,21.006,2.805c26.373-3.409,49.07,1.644,79.865,0c31.227,1.203,50.746-0.899,75.645,2.805
		c10.334-1.845,28.945,3.124,37.83,0c4.098,1.396,7.359,0,11.205,0c4.906,0,9.016,1.607,11.191,1.401
		c1.389-0.127,2.344-2.804,2.814-2.804c1.596,0.012,3.615,2.441,5.607,2.804c0.871,0.163,3.783-1.487,5.609-1.401
		c4.303,0.217,9.27,1.462,13.984,1.401c8.473-0.104,16.363-1.391,25.223-1.401c6.891,0,11.979,1.499,14.01,1.401
		c0.035,0,1.123-2.72,1.4-2.804c2.188-0.629,8.484,3.239,11.205,0c4.471,2.025,8.303-1.069,14.008,2.804
		c4.436,0.683,4.943-2.521,9.801-1.401c2.576-4.406,4.75,4.713,7.012,0c5.463-1.506,12.34,1.093,16.813-1.402
		c4.52,6.406,11.832-1.486,16.811,1.402c12.908,1.364,26.35,0.604,35.025,1.401c4.424,0.683,4.945-2.521,9.803-1.401
		c4.268-0.545,7.131,3.686,8.412-1.402c7.131,1.849,12.727,2.344,19.605,1.402c45.383,3.148,81.932,3.263,121.877,1.401"/>
	<path fill-rule="evenodd" clip-rule="evenodd" d="M665.907,169.028c3.149-3.39,9.276-3.801,11.204-8.405
		C671.726,160.907,664.033,166.171,665.907,169.028"/>
	<path fill-rule="evenodd" clip-rule="evenodd" d="M140.582,79.38c2.266-0.395,2.417,1.322,4.218,1.396
		c3.306,21.875,4.375,37.509,8.383,58.842c8.284-1.529,18.957-0.666,26.637-2.805c15.93-0.471,24.421,0.218,37.819-2.804
		c4.616,2.043,11.609-0.707,14.014,0c8.781-0.146,8.418-0.833,16.793-1.396c0.472-7.016-3.268-9.802-2.797-16.816
		c-1.136-4.933-5.639-6.496-5.609-12.607c-0.247-3.94-6.658-1.746-5.589-6.997c-0.037-3.3,2.398-4.134,1.396-8.412
		c10.303,0.428,8.829,12.643,12.599,19.61c2.69,7.601,4.756,15.783,7.01,23.822c6.171,0.761,15.502,1.208,23.817-1.396
		c15.616,1.432,30.161-1.287,46.224-1.415c8.135-1.293,10.623-1.197,21.006-1.396c-0.652-3.166,7.602,3.222,8.425-1.408
		c2.096,2.726,5.891-2.441,6.991,2.804c3.583-5.075,9.301-0.308,14.014-2.804c7.603,0.429,9.301-1.915,15.416,0
		c8.207-2.2,25.17-1.136,39.214-1.396c17.295-1.264,28.397-1.655,47.638-1.396c-0.761-6.226-2.375-7.421-2.809-11.217
		c0.664-9.604-2.569-23.109,5.608-25.206c6.924,1.929,3.172,10.956,1.396,15.41c-0.925,8.394,1.281,13.67,1.396,21.013
		c8.846-0.611,19.9-3.868,25.218,0c2.386,0.52,2.646-1.094,2.815-2.806c5.499,5.337,14.069-1.286,21.007,1.403
		c0.803,4.55-0.962,6.521-1.396,9.809c-6.66,1.4-9.325,2.44-18.214,2.797c-4.503,1.228-2.919-3.638-5.614-4.193
		c-2.612-0.199-4.677-0.931-5.603-2.811c-3.982,3.649-12.195,1.759-15.416,2.811c5.215,19.531,23.805,33.165,47.639,29.405
		c1.734-0.048,1.855,2.115,2.797,2.804c1.717,1.258,2.769-0.012,2.792,0c2.696,1.191,3.53,3.941,8.431,2.805
		c0.471,3.723,3.673,4.731,6.985,5.608c1.281,2.465,3.131,4.333,5.608,5.595c2.037,8.431,10.54,15.628,5.615,26.621
		c-19.43,5.209-37.166-1.475-53.234-7.01c2.175-4.98-4.774-0.846-4.212-4.195c0.181-2.52-1.717-2.953-1.402-5.607
		c5.614-3.486,9.203,5.223,14.001,7.004c14.994,1.717,26.813,7.529,37.837,0c-7.766-18.395-25.889-26.414-51.838-26.614
		c-6.744-3.522-11.991-8.568-18.209-12.605c-1.106-10.104-9.875-12.533-9.802-23.81c-16.28-2.164-26.662,2.018-42.03-1.415
		c-4.314-1.033-2.689,3.849-7.004,2.812c-12.267-2.188-33.986,2.139-49.04-1.396c-2.381-0.073-3.614,1.027-4.194,2.797
		c-10.182-2.954-18.395-1.298-29.43-1.4c-3.947-1.161-3.614,1.969-6.986,1.4c-14.987-1.239-25.919,1.893-44.828,1.396
		c-3.97-1.153-3.632,1.97-7.01,1.407c-11.766,0.696-26.645-1.896-30.827,2.793c1.735,18.347,11.054,29.115,15.416,44.833
		c-4.495-1.232-1.914,4.619-5.589,4.207c-5.094,1.342-1.191-6.309-5.614-5.607c-0.406-2.854-3.783-2.744-4.213-5.609
		c-4.725-2.271-8.358-5.644-12.599-8.399c-3.911-3.105-11.494-2.521-12.6-8.412c-7.572,2.521-18.07-3.13-26.633-4.199
		c-8.968-1.3-16.594-1.439-26.596-4.201c-3.97-1.16-3.649,1.97-7.028,1.402c-6.363-3.264-9.53-1.728-16.794-2.803
		c-5.335,14.769,5.149,28.403,1.396,39.225c3.088,9.523,3.518,21.695,5.614,32.215c1.849,2.354,3.705,4.703,2.792,9.803
		c5.023,1.766,8.908-9.426,9.809-2.791c-1.445,1.48-2.509,10.115-9.809,9.803c-6.091-0.447-4.677-8.389-7.003-12.607
		c-0.931-5.609-2.937-10.129-4.212-15.41c-0.853-20.631-4.805-38.15-5.597-58.836c-16.564-4.924-24.897-0.44-42.024-2.803
		c-4.393,0.73-7.813,2.459-11.204,4.205c-7.723-1.117-16.902-0.447-25.218,1.402c-8.044,0.642-11.125-1.505-16.812,0
		c-8.315-1.965-18.468-2.092-16.806-14.008c5.662-2.688,11.101,1.137,18.208-1.408c4.557,1.057,8.678,2.545,12.594,4.199
		c24.934-1.654,55.682,3.173,78.47-2.791c2.738-1.451-3.97-15.398,1.396-15.416c-4.653-2.352-2.067-11.954-4.205-16.812
		c-0.768-6.238-1.39-12.632-2.805-18.208V79.38z M230.237,139.617c-6.339-2.061-18.334-0.429-28.015,1.396
		c-11.537-0.593-26.101-0.417-36.423,2.803c-3.643-2.544-4.224,0.604-8.406-1.408c-0.042,4.255,4.914,3.5,8.406,4.206h14.02
		c29.334,4.291,60.891,6.334,79.824,21.019c-2.61-9.983-6.442-18.776-8.381-29.424C246.833,139.841,236.27,136.377,230.237,139.617"
		/>
	<path fill-rule="evenodd" clip-rule="evenodd" d="M929.274,167.633h2.809c6.654-0.126,3.524,9.536,6.987,12.606
		c2.054-4.018,6.478-5.663,9.821-8.405c11.402,0.888,25.507-6.025,26.601,7.002c-6.57,1.838-15.367,1.438-23.804,1.402
		c-11.096,1.512-7.082,18.137-9.82,28.012c-0.605,5.209,4.683,13.281-1.396,15.416c-8.787,1.793-4.647-9.344-5.59-15.416
		c-1.39-12.625-4.684-23.322-5.608-36.417C926.771,170.806,929.068,169.289,929.274,167.633"/>
</g>
</svg>
